<svg width="248" height="41" viewBox="0 0 248 41" fill="none" xmlns="http://www.w3.org/2000/svg">
<g clip-path="url(#clip0_81_86)">
<path d="M55.2206 32.3779V8.62213H69.4176C74.2544 8.62213 76.8744 10.6878 76.8744 14.3927C76.8744 17.3341 75.3293 19.4671 71.3658 19.7366V20.0509C75.7548 20.3653 77.8597 22.5657 77.8597 25.7541C77.8597 29.7957 75.3965 32.3554 70.0894 32.3554H55.2206V32.3779ZM60.5277 18.0526H68.8354C70.7836 18.0526 71.5897 17.379 71.5897 15.7399C71.5897 14.1008 70.7388 13.4047 68.7682 13.4047H60.5277V18.0526ZM60.5277 27.5953H69.4624C71.6121 27.5953 72.5078 26.9217 72.5078 25.0131C72.5078 23.1271 71.6345 22.4535 69.4624 22.4535H60.5277V27.5953Z" fill="white"/>
<path d="M79.2256 32.3779V28.965C79.2256 24.7886 81.0171 22.6331 86.0107 20.9491L92.0791 18.9732C94.2064 18.2322 94.9678 17.5137 94.9678 15.9644C94.9678 14.1681 93.9825 13.1353 90.0861 13.1353C85.7419 13.1353 84.4432 14.4376 84.4432 17.0646V17.5362H79.2704V17.0646C79.2704 12.4617 82.4054 8.28534 90.2877 8.28534C97.431 8.28534 100.32 11.5411 100.32 16.0542C100.32 20.2755 97.5653 22.3637 93.3555 23.5312L88.2052 24.9458C85.8987 25.6643 84.8238 26.3379 84.8238 28.2015L91.0043 27.5953H100.252V32.3779H79.2256Z" fill="white"/>
<path d="M102.469 32.3779V8.62213H116.666C121.503 8.62213 124.123 10.6878 124.123 14.3927C124.123 17.3341 122.578 19.4671 118.614 19.7366V20.0509C123.003 20.3653 125.108 22.5657 125.108 25.7541C125.108 29.7957 122.645 32.3554 117.338 32.3554H102.469V32.3779ZM107.776 18.0526H116.084C118.032 18.0526 118.838 17.379 118.838 15.7399C118.838 14.1008 117.987 13.4047 116.017 13.4047H107.776V18.0526ZM107.776 27.5953H116.711C118.861 27.5953 119.757 26.9217 119.757 25.0131C119.757 23.1271 118.883 22.4535 116.711 22.4535H107.776V27.5953Z" fill="white"/>
<path d="M132.52 32.3779V8.62213H145.598C151.42 8.62213 154.756 11.2043 154.756 15.7399C154.756 19.6019 152.539 21.9146 148.083 22.3412V22.6331C150.211 23.1944 151.017 24.3395 151.89 26.0011L155.316 32.3779H149.158L145.911 26.2032C144.948 24.362 144.075 23.7558 141.321 23.7558H137.827V32.3554H132.52V32.3779ZM137.805 19.759H145.553C148.061 19.759 149.203 19.0405 149.203 16.5707C149.203 14.2355 148.083 13.4272 145.553 13.4272H137.805V19.759Z" fill="white"/>
<path d="M156.436 23.5088C156.436 17.8505 160.422 14.2579 166.267 14.2579C172.066 14.2579 175.918 17.3116 175.918 22.8576C175.918 23.4863 175.851 23.9578 175.783 24.5641H161.363C161.497 27.3034 162.773 28.471 166.199 28.471C169.334 28.471 170.432 27.6626 170.432 26.1358V25.7766H175.739V26.1583C175.739 30.0203 171.999 32.7147 166.378 32.7147C160.467 32.7371 156.436 29.8182 156.436 23.5088ZM161.43 21.7798H170.835C170.7 19.4447 169.29 18.4118 166.177 18.4118C163.02 18.4118 161.676 19.4671 161.43 21.7798Z" fill="white"/>
<path d="M184.807 32.3779L176.768 14.6172H182.658L187.965 27.1911H188.323L193.653 14.6172H199.452L191.346 32.3779H184.807Z" fill="white"/>
<path d="M200.684 22.4535V8.62213H205.991V22.0493C205.991 26.0909 207.514 27.5504 212.306 27.5504C217.143 27.5504 218.621 26.0909 218.621 22.0493V8.62213H223.928V22.4535C223.928 28.8302 220.032 32.7371 212.306 32.7371C204.603 32.7371 200.684 28.8302 200.684 22.4535Z" fill="white"/>
<path d="M226.615 32.3779V8.62213H238.976C244.462 8.62213 247.978 11.7432 247.978 17.1993C247.978 22.6555 244.44 25.799 238.976 25.799H231.9V32.3554H226.615V32.3779ZM231.922 13.4047V21.0164H238.416C241.349 21.0164 242.738 20.1632 242.738 17.1993C242.738 14.3029 241.349 13.4047 238.416 13.4047H231.922Z" fill="white"/>
<path d="M12.3608 24.5641C12.3608 20.006 15.4062 16.8401 21.6762 16.391V15.9419C16.0108 15.5378 13.7716 12.4841 13.7716 8.28531C13.7716 7.83624 13.7939 7.40962 13.8611 7.00546H0V41.0224H21.3179C27.767 41.0224 31.3051 38.3729 32.2232 34.017H23.5124C15.9213 34.017 12.3608 30.357 12.3608 24.5641Z" fill="#557FBD"/>
<path d="M44.8079 0H24.4529C18.1158 0 14.4434 2.46988 13.8611 7.00547H20.355C27.2968 7.00547 31.0364 9.94687 31.0364 15.2683C31.0364 19.4896 28.8195 22.5208 23.1317 22.925V23.374C29.4017 23.8231 32.4471 26.9666 32.4471 31.5471C32.4471 32.4228 32.3576 33.2311 32.2008 33.9945H44.8079V0Z" fill="#F196D0"/>
<path d="M23.1318 23.3965V22.9474C28.7971 22.5433 31.0364 19.4896 31.0364 15.2908C31.0364 9.96932 27.2968 7.02792 20.3551 7.02792H13.8612C13.8164 7.43209 13.7716 7.8587 13.7716 8.30777C13.7716 12.529 15.9885 15.5602 21.6762 15.9644V16.4135C15.4063 16.8625 12.3608 20.006 12.3608 24.5865C12.3608 30.3795 15.8989 34.017 23.49 34.017H32.2008C32.3576 33.2535 32.4471 32.4452 32.4471 31.5695C32.4471 26.989 29.4017 23.8456 23.1318 23.3965Z" fill="white"/>
</g>
<defs>
<clipPath id="clip0_81_86">
<rect width="248" height="41" fill="white"/>
</clipPath>
</defs>
</svg>
