<svg width="188" height="55" viewBox="0 0 188 55" fill="none" xmlns="http://www.w3.org/2000/svg">
<g clip-path="url(#clip0_142_1053)">
<path d="M72.0253 25.5546V1.79395H86.2702C91.1289 1.79395 93.7516 3.83609 93.7516 7.56163C93.7516 10.5145 92.178 12.6394 88.2303 12.9154V13.2465C92.6197 13.5777 94.7454 15.7578 94.7454 18.959C94.7454 22.9881 92.2608 25.5546 86.9328 25.5546H72.0253ZM77.3533 11.232H85.6905C87.6505 11.232 88.4511 10.5697 88.4511 8.94146C88.4511 7.31326 87.5953 6.59575 85.6077 6.59575H77.3533V11.232ZM77.3533 20.7528H86.3254C88.4787 20.7528 89.3621 20.0905 89.3621 18.1587C89.3621 16.2822 88.4787 15.6198 86.3254 15.6198H77.3533V20.7528Z" fill="#FDFBF6"/>
<path d="M96.0981 25.554V22.132C96.0981 17.9373 97.9201 15.7848 102.917 14.129L109.018 12.142C111.144 11.3969 111.917 10.6794 111.917 9.13402C111.917 7.31264 110.923 6.29157 107.03 6.29157C102.668 6.29157 101.343 7.61621 101.343 10.2379V10.707H96.1257V10.2379C96.1257 5.62925 99.2728 1.43457 107.196 1.43457C114.346 1.43457 117.272 4.69097 117.272 9.18921C117.272 13.4115 114.512 15.5088 110.288 16.6679L105.098 18.0753C102.806 18.7928 101.702 19.4551 101.702 21.3317L107.914 20.7246H117.217V25.4988H96.0981V25.554Z" fill="#FDFBF6"/>
<path d="M119.426 25.5546V1.79395H133.67C138.529 1.79395 141.152 3.83609 141.152 7.56163C141.152 10.5145 139.578 12.6394 135.631 12.9154V13.2465C140.02 13.5777 142.146 15.7578 142.146 18.959C142.146 22.9881 139.661 25.5546 134.333 25.5546H119.426ZM124.754 11.232H133.091C135.051 11.232 135.851 10.5697 135.851 8.94146C135.851 7.31326 134.996 6.59575 133.008 6.59575H124.754V11.232ZM124.754 20.7528H133.726C135.879 20.7528 136.762 20.0905 136.762 18.1587C136.762 16.2822 135.879 15.6198 133.726 15.6198H124.754V20.7528Z" fill="#FDFBF6"/>
<path d="M72.1357 53.206V29.4453H85.2487C91.1013 29.4453 94.4417 32.0394 94.4417 36.5652C94.4417 40.4288 92.2056 42.7469 87.7333 43.1608V43.4368C89.859 44.0163 90.6872 45.1478 91.5706 46.8036L95.0214 53.1784H88.8376L85.58 47.0519C84.6138 45.203 83.7304 44.5958 80.9697 44.5958H77.4637V53.206H72.1357ZM77.4361 40.5943H85.1935C87.7057 40.5943 88.8376 39.8768 88.8376 37.3931C88.8376 35.0474 87.7057 34.2471 85.1935 34.2471H77.4361V40.5943Z" fill="#FDFBF6"/>
<path d="M96.1257 44.3474C96.1257 38.6625 100.129 35.1025 105.981 35.1025C111.806 35.1025 115.671 38.1382 115.671 43.7127C115.671 44.3474 115.588 44.8165 115.533 45.4237H101.067C101.205 48.1557 102.475 49.3148 105.926 49.3148C109.073 49.3148 110.177 48.4869 110.177 46.9691V46.6379H115.505V47.0243C115.505 50.8878 111.751 53.5923 106.119 53.5923C100.184 53.5647 96.1257 50.667 96.1257 44.3474ZM101.122 42.6088H110.564C110.426 40.2631 108.99 39.242 105.871 39.242C102.724 39.242 101.371 40.3183 101.122 42.6088Z" fill="#FDFBF6"/>
<path d="M124.616 53.2065L116.527 35.4619H122.435L127.763 48.046H128.122L133.477 35.4619H139.275L131.158 53.2065H124.616Z" fill="#FDFBF6"/>
<path d="M140.517 43.2995V29.4736H145.845V42.9132C145.845 46.9423 147.363 48.4049 152.194 48.4049C157.053 48.4049 158.544 46.9423 158.544 42.9132V29.4736H163.872V43.2995C163.872 49.6743 159.979 53.5931 152.194 53.5931C144.465 53.5655 140.517 49.6743 140.517 43.2995Z" fill="#FDFBF6"/>
<path d="M166.55 53.206V29.4453H178.973C184.466 29.4453 188.028 32.5637 188.028 38.0279C188.028 43.492 184.494 46.638 178.973 46.638H171.878V53.206H166.55ZM171.878 34.2471V41.8638H178.393C181.347 41.8638 182.727 41.0083 182.727 38.0279C182.727 35.1302 181.347 34.2471 178.393 34.2471H171.878Z" fill="#FDFBF6"/>
<path d="M16.6467 32.9503C16.6467 26.8239 20.7325 22.6016 29.18 21.9945V21.3873C21.5606 20.8354 18.5515 16.7511 18.5515 11.0938C18.5515 10.4867 18.5791 9.93474 18.662 9.38281H0V55H28.6831C37.3792 55 42.1275 51.44 43.3421 45.6171H31.637C21.4226 45.6171 16.6467 40.7325 16.6467 32.9503Z" fill="#557FBD"/>
<path d="M60.3201 0H32.9345C24.3765 0 19.435 3.31159 18.662 9.38284H27.3856C36.7166 9.38284 41.7686 13.3292 41.7686 20.4767C41.7686 26.134 38.7595 30.2183 31.1401 30.7702V31.3773C39.5877 31.9844 43.6734 36.2067 43.6734 42.3332C43.6734 43.4922 43.563 44.5961 43.3422 45.6172H60.3201V0Z" fill="#F196D0"/>
<path d="M31.1401 31.3773V30.7702C38.7595 30.2182 41.7686 26.1339 41.7686 20.4766C41.7686 13.3291 36.7166 9.38281 27.3856 9.38281H18.662C18.5792 9.93474 18.5516 10.5143 18.5516 11.0938C18.5516 16.7511 21.5607 20.8354 29.1801 21.3873V21.9945C20.7325 22.6016 16.6467 26.8239 16.6467 32.9503C16.6467 40.7049 21.4226 45.6171 31.637 45.6171H43.3422C43.563 44.5961 43.6735 43.4922 43.6735 42.3331C43.6735 36.2067 39.5877 31.9844 31.1401 31.3773Z" fill="#FDFBF6"/>
</g>
<defs>
<clipPath id="clip0_142_1053">
<rect width="188" height="55" fill="white"/>
</clipPath>
</defs>
</svg>
