<?xml version="1.0" encoding="utf-8"?>
<!-- Generator: Adobe Illustrator 24.1.1, SVG Export Plug-In . SVG Version: 6.00 Build 0)  -->
<svg version="1.1" id="Layer_1" xmlns="http://www.w3.org/2000/svg" xmlns:xlink="http://www.w3.org/1999/xlink" x="0px" y="0px"
	 viewBox="0 0 45 42" style="enable-background:new 0 0 45 42;" xml:space="preserve">
<style type="text/css">
	.st0{fill:#557FBD;}
	.st1{fill:#F196D0;}
	.st2{fill:#FFFFFF;}
</style>
<g>
	<path class="st0" d="M12.4,25.1c0-4.7,3.1-7.9,9.4-8.4v-0.5c-5.7-0.4-7.9-3.5-7.9-7.8c0-0.5,0-0.9,0.1-1.3H0V42h21.4
		c6.5,0,10-2.7,11-7.2h-8.7C16,34.8,12.4,31.1,12.4,25.1z"/>
	<path class="st1" d="M45,0H24.6c-6.4,0-10.1,2.5-10.6,7.2h6.5c7,0,10.7,3,10.7,8.5c0,4.3-2.2,7.4-7.9,7.8v0.5
		c6.3,0.5,9.4,3.7,9.4,8.4c0,0.9-0.1,1.7-0.2,2.5H45V0z"/>
	<path class="st2" d="M23.2,24v-0.5c5.7-0.4,7.9-3.5,7.9-7.8c0-5.4-3.8-8.5-10.7-8.5h-6.5c0,0.4-0.1,0.9-0.1,1.3
		c0,4.3,2.2,7.4,7.9,7.8v0.5c-6.3,0.5-9.4,3.7-9.4,8.4c0,5.9,3.6,9.7,11.2,9.7h8.7c0.2-0.8,0.2-1.6,0.2-2.5
		C32.6,27.6,29.5,24.4,23.2,24z"/>
</g>
</svg>
