<svg width="77" height="70" viewBox="0 0 77 70" fill="none" xmlns="http://www.w3.org/2000/svg">
<g clip-path="url(#clip0_86_179)">
<path d="M21.226 41.9368C21.226 34.1395 26.4357 28.7657 37.2072 27.993V27.2202C27.4918 26.5178 23.6549 21.3196 23.6549 14.1194C23.6549 13.3467 23.6901 12.6442 23.7957 11.9418H0V70H36.5736C47.6618 70 53.7163 65.4691 55.2651 58.0582H40.34C27.3158 58.0582 21.226 51.8414 21.226 41.9368Z" fill="#557FBD"/>
<path d="M76.9136 0H41.9945C31.0822 0 24.7813 4.21475 23.7957 11.9418H34.9191C46.817 11.9418 53.2587 16.9644 53.2587 26.0612C53.2587 33.2614 49.4218 38.4596 39.7064 39.1621V39.9348C50.4778 40.7075 55.6875 46.0813 55.6875 53.8786C55.6875 55.3537 55.5467 56.7587 55.2651 58.0582H76.9136V0Z" fill="#F196D0"/>
<path d="M39.7064 39.9347V39.162C49.4218 38.4596 53.2587 33.2614 53.2587 26.0612C53.2587 16.9644 46.817 11.9418 34.9191 11.9418H23.7957C23.6901 12.6442 23.6549 13.3818 23.6549 14.1194C23.6549 21.3196 27.4918 26.5178 37.2072 27.2202V27.993C26.4357 28.7657 21.226 34.1395 21.226 41.9368C21.226 51.8063 27.3158 58.0582 40.34 58.0582H55.2651C55.5467 56.7586 55.6875 55.3537 55.6875 53.8786C55.6875 46.0813 50.4778 40.7075 39.7064 39.9347Z" fill="#FDFBF6"/>
</g>
<defs>
<clipPath id="clip0_86_179">
<rect width="76.9136" height="70" fill="white"/>
</clipPath>
</defs>
</svg>
