<svg width="75" height="75" viewBox="0 0 75 75" fill="none" xmlns="http://www.w3.org/2000/svg">
<g clip-path="url(#clip0_57_686)">
<path d="M65 2C69.4 2 73 5.6 73 10V65C73 69.4 69.4 73 65 73H10C5.6 73 2 69.4 2 65V10C2 5.6 5.6 2 10 2H65ZM65 0H10C4.5 0 0 4.5 0 10V65C0 70.5 4.5 75 10 75H65C70.5 75 75 70.5 75 65V10C75 4.5 70.5 0 65 0Z" fill="#F095CF"/>
<path d="M25 19.2998C28.1 19.2998 30.7 21.7998 30.7 24.9998C30.7 28.1998 28.2 30.6998 25 30.6998C21.8 30.6998 19.3 28.1998 19.3 24.9998C19.3 21.7998 21.9 19.2998 25 19.2998ZM51.1 19.2998C54.2 19.2998 56.8 21.7998 56.8 24.9998C56.8 28.1998 54.3 30.6998 51.1 30.6998C48 30.6998 45.4 28.1998 45.4 24.9998C45.4 21.7998 48 19.2998 51.1 19.2998ZM14.8 40.4998C14.8 36.2998 18.2 32.8998 22.4 32.8998H25.4C26.5 32.8998 27.6 33.0998 28.6 33.5998C28.5 34.0998 28.5 34.5998 28.5 35.1998C28.5 37.8998 29.7 40.2998 31.6 41.9998H16.3C15.5 41.9998 14.8 41.3998 14.8 40.4998ZM43.6 41.9998C43.5 41.9998 43.5 41.9998 43.6 41.9998C45.4 40.2998 46.6 37.8998 46.6 35.1998C46.6 34.6998 46.6 34.0998 46.5 33.5998C47.5 33.1998 48.5 32.8998 49.7 32.8998H52.7C56.9 32.8998 60.3 36.2998 60.3 40.4998C60.3 41.2998 59.6 41.9998 58.8 41.9998H43.6ZM30.7 35.1998C30.7 31.3998 33.8 28.3998 37.5 28.3998C41.3 28.3998 44.3 31.4998 44.3 35.1998C44.3 38.9998 41.2 41.9998 37.5 41.9998C33.7 41.9998 30.7 38.9998 30.7 35.1998ZM23.9 53.7998C23.9 48.5998 28.1 44.2998 33.4 44.2998H41.7C46.9 44.2998 51.2 48.4998 51.2 53.7998C51.2 54.7998 50.4 55.6998 49.3 55.6998H25.8C24.7 55.6998 23.9 54.7998 23.9 53.7998Z" fill="#F095CF"/>
</g>
<defs>
<clipPath id="clip0_57_686">
<rect width="75" height="75" fill="white"/>
</clipPath>
</defs>
</svg>
