<svg width="24" height="24" viewBox="0 0 24 24" fill="none" xmlns="http://www.w3.org/2000/svg">
<g clip-path="url(#clip0_68_106)">
<path d="M18.5 7.10008C18.2 6.40008 17.6 5.80008 16.9 5.50008C15.8 5.10008 13.2 5.20008 12 5.20008C10.8 5.20008 8.20002 5.10008 7.10001 5.50008C6.40001 5.80008 5.80002 6.40008 5.50002 7.10008C5.10002 8.20008 5.20001 10.8001 5.20001 12.0001C5.20001 13.2001 5.10002 15.8001 5.50002 16.9001C5.80002 17.6001 6.40001 18.2001 7.10001 18.5001C8.20002 18.9001 10.8 18.8001 12 18.8001C13.2 18.8001 15.8 18.9001 16.9 18.5001C17.6 18.2001 18.2 17.6001 18.5 16.9001C18.9 15.8001 18.8 13.2001 18.8 12.0001C18.8 10.8001 18.9 8.20008 18.5 7.10008ZM12 16.3001C9.60002 16.3001 7.70001 14.4001 7.70001 12.0001C7.70001 9.60008 9.60002 7.70008 12 7.70008C14.4 7.70008 16.3 9.60008 16.3 12.0001C16.3 14.4001 14.4 16.3001 12 16.3001ZM16.4 8.60008C15.8 8.60008 15.4 8.20008 15.4 7.60008C15.4 7.10008 15.8 6.60008 16.4 6.60008C17 6.60008 17.4 7.00008 17.4 7.60008C17.4 8.10008 17 8.60008 16.4 8.60008Z" fill="#8A96B8"/>
<path d="M0 0V24H24V0H0ZM20.2 15.4C20.1 16.7 19.8 17.9 18.9 18.9C17.9 19.9 16.7 20.2 15.4 20.2C14 20.3 9.9 20.3 8.5 20.2C7.2 20.1 6 19.8 5 18.9C4 17.9 3.7 16.7 3.7 15.4C3.6 14 3.6 9.9 3.7 8.5C3.8 7.2 4.1 6 5 5C6 4 7.2 3.7 8.5 3.7C9.9 3.6 14 3.6 15.4 3.7C16.7 3.8 17.9 4.1 18.9 5C19.9 6 20.2 7.2 20.2 8.5C20.3 9.9 20.3 14.1 20.2 15.4Z" fill="#8A96B8"/>
<path d="M12 9.2002C10.5 9.2002 9.20001 10.4002 9.20001 12.0002C9.20001 13.5002 10.4 14.8002 12 14.8002C13.5 14.8002 14.8 13.6002 14.8 12.0002C14.8 10.5002 13.5 9.2002 12 9.2002Z" fill="#8A96B8"/>
</g>
<defs>
<clipPath id="clip0_68_106">
<rect width="24" height="24" fill="white"/>
</clipPath>
</defs>
</svg>
