<svg width="24" height="24" viewBox="0 0 24 24" fill="none" xmlns="http://www.w3.org/2000/svg">
<g clip-path="url(#clip0_68_103)">
<path d="M0 0V24H24V0H0ZM7.7 19.8H4.5V9.4H7.7V19.8ZM6.1 8C5.1 8 4.2 7.1 4.2 6.1C4.2 5.1 5 4.2 6.1 4.2C7.1 4.2 8 5 8 6.1C8 7.1 7.1 8 6.1 8ZM19.8 19.8H16.6V14.7C16.6 13.5 16.6 11.9 14.9 11.9C13.2 11.9 13 13.2 13 14.6V19.7H9.7V9.4H12.8V10.8C13.2 10 14.3 9.1 15.9 9.1C19.2 9.1 19.8 11.2 19.8 14V19.8Z" fill="#8A96B8"/>
</g>
<defs>
<clipPath id="clip0_68_103">
<rect width="24" height="24" fill="white"/>
</clipPath>
</defs>
</svg>
