<svg width="24" height="24" viewBox="0 0 24 24" fill="none" xmlns="http://www.w3.org/2000/svg">
<g clip-path="url(#clip0_68_100)">
<path d="M0 0V24H24V0H0ZM20.3 16.2C20.3 17.3 19.4 18.3 18.2 18.3H5.8C4.7 18.3 3.7 17.4 3.7 16.2V9.4L10.8 14.7C11.5 15.3 12.6 15.3 13.3 14.7L20.4 9.4V16.2H20.3ZM19.7 8.6L12.6 13.9C12.2 14.2 11.7 14.2 11.4 13.9L4.3 8.6C3.9 8.3 3.7 7.8 3.7 7.3C3.7 6.4 4.4 5.7 5.3 5.7H18.8C19.7 5.7 20.4 6.4 20.4 7.3C20.3 7.8 20.1 8.3 19.7 8.6Z" fill="#8A96B8"/>
</g>
<defs>
<clipPath id="clip0_68_100">
<rect width="24" height="24" fill="white"/>
</clipPath>
</defs>
</svg>
