<svg width="24" height="24" viewBox="0 0 24 24" fill="none" xmlns="http://www.w3.org/2000/svg">
<g clip-path="url(#clip0_68_114)">
<path d="M10.3 14.5L14.7 12L10.3 9.5V14.5Z" fill="#8A96B8"/>
<path d="M0 0V24H24V0H0ZM20.1 16.1C19.9 16.8 19.3 17.4 18.6 17.6C17.3 18 12 18 12 18C12 18 6.7 18 5.4 17.6C4.7 17.4 4.1 16.9 3.9 16.1C3.6 14.8 3.6 12 3.6 12C3.6 12 3.6 9.2 4 7.9C4.2 7.2 4.8 6.6 5.5 6.4C6.7 6.1 12 6.1 12 6.1C12 6.1 17.3 6.1 18.6 6.5C19.3 6.7 19.9 7.3 20.1 8C20.5 9.3 20.5 12.1 20.5 12.1C20.5 12.1 20.4 14.8 20.1 16.1Z" fill="#8A96B8"/>
</g>
<defs>
<clipPath id="clip0_68_114">
<rect width="24" height="24" fill="white"/>
</clipPath>
</defs>
</svg>
