<?xml version="1.0" encoding="utf-8"?>
<!-- Generator: Adobe Illustrator 24.1.1, SVG Export Plug-In . SVG Version: 6.00 Build 0)  -->
<svg version="1.1" id="Layer_1" xmlns="http://www.w3.org/2000/svg" xmlns:xlink="http://www.w3.org/1999/xlink" x="0px" y="0px"
	 viewBox="0 0 20 20" style="enable-background:new 0 0 20 20;" xml:space="preserve">
<style type="text/css">
	.st0{fill:#FFFFFF;}
</style>
<path class="st0" d="M17.1,0H2.9C1.3,0,0,1.3,0,2.9v14.3C0,18.7,1.3,20,2.9,20h14.3c1.6,0,2.9-1.3,2.9-2.9V2.9C20,1.3,18.7,0,17.1,0
	z M15.2,7.9h-2.5c-0.2-1.4-0.6-2.6-1.2-3.3C13.1,5.1,14.5,6.3,15.2,7.9z M12.1,10c0,0.5,0,0.9-0.1,1.4H8c0-0.4-0.1-0.9-0.1-1.4
	s0-0.9,0.1-1.4h4C12.1,9.1,12.1,9.5,12.1,10z M9.4,4.7C9.6,4.5,9.8,4.4,10,4.4s0.4,0.1,0.6,0.3c0.2,0.2,0.5,0.6,0.7,1.1
	c0.3,0.6,0.5,1.3,0.6,2.1H8.1c0.1-0.8,0.3-1.5,0.6-2.1C8.9,5.3,9.1,5,9.4,4.7z M8.6,4.6C8,5.4,7.6,6.5,7.4,7.9H4.8
	C5.5,6.3,6.9,5.1,8.6,4.6z M4.4,10c0-0.5,0.1-0.9,0.2-1.4h2.7c0,0.4-0.1,0.9-0.1,1.4s0,0.9,0.1,1.4H4.6C4.5,10.9,4.4,10.5,4.4,10z
	 M4.8,12.1h2.5c0.2,1.4,0.6,2.6,1.2,3.3C6.9,14.9,5.5,13.7,4.8,12.1z M10.6,15.3c-0.2,0.2-0.4,0.3-0.6,0.3s-0.4-0.1-0.6-0.3
	c-0.2-0.2-0.5-0.6-0.7-1.1v0c-0.3-0.6-0.5-1.3-0.6-2.1h3.8c-0.1,0.8-0.3,1.5-0.6,2.1C11.1,14.7,10.9,15,10.6,15.3z M11.4,15.4
	c0.6-0.7,1-1.9,1.2-3.3h2.5C14.5,13.7,13.1,14.9,11.4,15.4z M15.4,11.4h-2.7c0-0.4,0.1-0.9,0.1-1.4s0-0.9-0.1-1.4h2.7
	c0.1,0.4,0.2,0.9,0.2,1.4C15.6,10.5,15.5,10.9,15.4,11.4z"/>
</svg>
