<?xml version="1.0" encoding="utf-8"?>
<!-- Generator: Adobe Illustrator 24.1.1, SVG Export Plug-In . SVG Version: 6.00 Build 0)  -->
<svg version="1.1" id="Layer_1" xmlns="http://www.w3.org/2000/svg" xmlns:xlink="http://www.w3.org/1999/xlink" x="0px" y="0px"
	 viewBox="0 0 20 20" style="enable-background:new 0 0 20 20;" xml:space="preserve">
<style type="text/css">
	.st0{fill:#FFFFFF;}
</style>
<path class="st0" d="M2.9,0C1.3,0,0,1.3,0,2.9v14.3C0,18.7,1.3,20,2.9,20h14.3c1.6,0,2.9-1.3,2.9-2.9V2.9C20,1.3,18.7,0,17.1,0H2.9z
	 M9.7,10.7L2.9,6.3C2.9,5.5,3.5,5,4.3,5h11.4c0.7,0,1.3,0.5,1.4,1.3l-6.9,4.4c-0.1,0.1-0.2,0.1-0.3,0.1C9.9,10.7,9.8,10.7,9.7,10.7z
	 M11.1,11.9L17.1,8v5.6c0,0.8-0.7,1.4-1.4,1.4H4.3c-0.8,0-1.4-0.7-1.4-1.4V8l6.1,3.9c0.3,0.2,0.7,0.3,1.1,0.3
	C10.4,12.3,10.7,12.1,11.1,11.9L11.1,11.9z"/>
</svg>
