<?xml version="1.0" encoding="utf-8"?>
<!-- Generator: Adobe Illustrator 24.1.1, SVG Export Plug-In . SVG Version: 6.00 Build 0)  -->
<svg version="1.1" id="Layer_1" xmlns="http://www.w3.org/2000/svg" xmlns:xlink="http://www.w3.org/1999/xlink" x="0px" y="0px"
	 viewBox="0 0 20 20" style="enable-background:new 0 0 20 20;" xml:space="preserve">
<style type="text/css">
	.st0{fill:#FFFFFF;}
</style>
<path class="st0" d="M2.9,0C1.3,0,0,1.3,0,2.9v14.3C0,18.7,1.3,20,2.9,20h14.3c1.6,0,2.9-1.3,2.9-2.9V2.9C20,1.3,18.7,0,17.1,0H2.9z
	 M6.9,4.3C7.3,4.2,7.8,4.5,8,4.9L8.9,7C9,7.3,8.9,7.8,8.6,8.1L7.5,9c0.7,1.6,2,2.9,3.6,3.6l0.9-1.1c0.3-0.3,0.7-0.4,1.1-0.3l2.1,0.9
	c0.4,0.2,0.7,0.6,0.5,1.1l-0.5,1.9c-0.1,0.4-0.5,0.7-0.9,0.7c-5.5,0-10-4.5-10-10c0-0.4,0.3-0.7,0.7-0.9L6.9,4.3z"/>
</svg>
