<svg width="18" height="18" viewBox="0 0 18 18" fill="none" xmlns="http://www.w3.org/2000/svg">
<g clip-path="url(#clip0_86_151)">
<path d="M2.57143 1.92857C2.21786 1.92857 1.92857 2.21786 1.92857 2.57143V15.4286C1.92857 15.7821 2.21786 16.0714 2.57143 16.0714H15.4286C15.7821 16.0714 16.0714 15.7821 16.0714 15.4286V2.57143C16.0714 2.21786 15.7821 1.92857 15.4286 1.92857H2.57143ZM0 2.57143C0 1.15313 1.15313 0 2.57143 0H15.4286C16.8469 0 18 1.15313 18 2.57143V15.4286C18 16.8469 16.8469 18 15.4286 18H2.57143C1.15313 18 0 16.8469 0 15.4286V2.57143ZM13.5402 7.11161L8.39732 12.2545C8.01964 12.6321 7.40893 12.6321 7.03527 12.2545L4.46384 9.68304C4.08616 9.30536 4.08616 8.69464 4.46384 8.32098C4.84152 7.94732 5.45223 7.9433 5.82589 8.32098L7.71429 10.2094L12.1741 5.74554C12.5518 5.36786 13.1625 5.36786 13.5362 5.74554C13.9098 6.12321 13.9138 6.73393 13.5362 7.10759L13.5402 7.11161Z" fill="#F095CF"/>
</g>
<defs>
<clipPath id="clip0_86_151">
<rect width="18" height="18" fill="white"/>
</clipPath>
</defs>
</svg>
