<svg width="71" height="71" viewBox="0 0 71 71" fill="none" xmlns="http://www.w3.org/2000/svg">
<g clip-path="url(#clip0_65_57)">
<path d="M27.264 19.0281C24.992 19.0281 23.0987 20.9214 23.0987 23.1934V47.9014C23.0987 50.1734 24.992 52.0667 27.264 52.0667H43.736C46.008 52.0667 47.9013 50.1734 47.9013 47.9014V29.3467H39.6653C38.5293 29.3467 37.5827 28.4001 37.5827 27.2641V19.0281H27.264ZM39.6653 19.0281V27.2641H47.9013L39.6653 19.0281ZM37.0147 33.9854V40.5174L39.0027 38.5294C39.5707 37.9614 40.612 37.9614 41.18 38.5294C41.748 39.0974 41.748 40.1387 41.18 40.7067L36.5413 45.3454C35.9733 45.9134 34.932 45.9134 34.364 45.3454L29.7253 40.7067C29.1573 40.1387 29.1573 39.0974 29.7253 38.5294C30.2933 37.9614 31.3347 37.9614 31.9027 38.5294L33.8907 40.5174V33.9854C33.8907 33.1334 34.5533 32.4707 35.4053 32.4707C36.2573 32.4707 37.0147 33.1334 37.0147 33.9854Z" fill="url(#paint0_linear_65_57)"/>
<path d="M61.5333 2.84C65.2253 2.84 68.16 5.77467 68.16 9.46667V61.5333C68.16 65.2253 65.2253 68.16 61.5333 68.16H9.46667C5.77467 68.16 2.84 65.2253 2.84 61.5333V40.7067V9.46667V2.84H9.46667H37.8667H61.5333ZM61.5333 0H37.8667H9.46667H0V9.46667V40.7067V61.5333C0 66.74 4.26 71 9.46667 71H61.5333C66.74 71 71 66.74 71 61.5333V9.46667C71 4.26 66.74 0 61.5333 0Z" fill="url(#paint1_linear_65_57)"/>
</g>
<defs>
<linearGradient id="paint0_linear_65_57" x1="17.9884" y1="24.9685" x2="42.8121" y2="42.6396" gradientUnits="userSpaceOnUse">
<stop stop-color="#4D88CE"/>
<stop offset="1" stop-color="#F095CF"/>
</linearGradient>
<linearGradient id="paint1_linear_65_57" x1="18.9023" y1="23.6847" x2="43.726" y2="41.3558" gradientUnits="userSpaceOnUse">
<stop stop-color="#4D88CE"/>
<stop offset="1" stop-color="#F095CF"/>
</linearGradient>
<clipPath id="clip0_65_57">
<rect width="71" height="71" fill="white"/>
</clipPath>
</defs>
</svg>
