<svg width="71" height="71" viewBox="0 0 71 71" fill="none" xmlns="http://www.w3.org/2000/svg">
<g clip-path="url(#clip0_65_61)">
<path d="M61.5333 2.84C65.2253 2.84 68.16 5.77467 68.16 9.46667V61.5333C68.16 65.2253 65.2253 68.16 61.5333 68.16H9.46667C5.77467 68.16 2.84 65.2253 2.84 61.5333V40.7067V9.46667V2.84H9.46667H37.8667H61.5333ZM61.5333 0H37.8667H9.46667H0V9.46667V40.7067V61.5333C0 66.74 4.26 71 9.46667 71H61.5333C66.74 71 71 66.74 71 61.5333V9.46667C71 4.26 66.74 0 61.5333 0Z" fill="url(#paint0_linear_65_61)"/>
<path d="M35.5 48.4695C45.0613 48.4695 52.824 42.1268 52.824 34.3641C52.824 26.6015 45.0613 20.2588 35.5 20.2588C25.9387 20.2588 18.176 26.6015 18.176 34.3641C18.176 37.3935 19.4067 40.2335 21.3947 42.5055C21.3 44.2095 20.6373 45.6295 19.9747 46.7655C19.596 47.4281 19.2173 47.9015 18.9333 48.1855C18.744 48.3748 18.6493 48.4695 18.5547 48.5641L18.46 48.6588C18.176 48.9428 18.0813 49.4161 18.2707 49.7948C18.46 50.1735 18.8387 50.4575 19.312 50.4575C21.3 50.4575 23.1933 49.8895 24.8027 49.1321C26.3173 48.4695 27.6427 47.6175 28.4947 47.0495C30.5773 48.0908 32.944 48.4695 35.5 48.4695ZM26.7907 32.2815C28.0213 32.2815 28.968 33.2281 28.968 34.4588C28.968 35.6895 28.0213 36.6361 26.7907 36.6361C25.56 36.6361 24.6133 35.6895 24.6133 34.4588C24.6133 33.2281 25.6547 32.2815 26.7907 32.2815ZM35.5 32.2815C36.7307 32.2815 37.6773 33.2281 37.6773 34.4588C37.6773 35.6895 36.7307 36.6361 35.5 36.6361C34.2693 36.6361 33.3227 35.6895 33.3227 34.4588C33.3227 33.2281 34.2693 32.2815 35.5 32.2815ZM42.032 34.4588C42.032 33.2281 42.9787 32.2815 44.2093 32.2815C45.44 32.2815 46.3867 33.2281 46.3867 34.4588C46.3867 35.6895 45.44 36.6361 44.2093 36.6361C42.9787 36.6361 42.032 35.5948 42.032 34.4588Z" fill="url(#paint1_linear_65_61)"/>
</g>
<defs>
<linearGradient id="paint0_linear_65_61" x1="16.3376" y1="22.2605" x2="39.4783" y2="38.2486" gradientUnits="userSpaceOnUse">
<stop stop-color="#4D88CE"/>
<stop offset="1" stop-color="#F095CF"/>
</linearGradient>
<linearGradient id="paint1_linear_65_61" x1="14.6881" y1="24.6481" x2="37.8288" y2="40.6362" gradientUnits="userSpaceOnUse">
<stop stop-color="#4D88CE"/>
<stop offset="1" stop-color="#F095CF"/>
</linearGradient>
<clipPath id="clip0_65_61">
<rect width="71" height="71" fill="white"/>
</clipPath>
</defs>
</svg>
