<svg width="71" height="71" viewBox="0 0 71 71" fill="none" xmlns="http://www.w3.org/2000/svg">
<g clip-path="url(#clip0_57_665)">
<path d="M16.2827 26.98C16.2827 24.6133 18.176 22.72 20.5427 22.72H37.5827C39.9493 22.72 41.8427 24.6133 41.8427 26.98V44.02C41.8427 46.3866 39.9493 48.28 37.5827 48.28H20.5427C18.176 48.28 16.2827 46.3866 16.2827 44.02V26.98ZM53.5813 25.0866C54.244 25.4653 54.7173 26.2226 54.7173 26.98V44.02C54.7173 44.7773 54.244 45.5346 53.5813 45.9133C52.9187 46.292 52.0667 46.292 51.404 45.8186L44.9667 41.5586L44.02 40.896V39.76V31.24V30.104L44.9667 29.4413L51.404 25.1813C52.0667 24.8026 52.824 24.708 53.5813 25.0866Z" fill="url(#paint0_linear_57_665)"/>
<path d="M61.5333 2.84C65.2253 2.84 68.16 5.77467 68.16 9.46667V61.5333C68.16 65.2253 65.2253 68.16 61.5333 68.16H9.46667C5.77467 68.16 2.84 65.2253 2.84 61.5333V40.7067V9.46667V2.84H9.46667H37.8667H61.5333ZM61.5333 0H37.8667H9.46667H0V9.46667V40.7067V61.5333C0 66.74 4.26 71 9.46667 71H61.5333C66.74 71 71 66.74 71 61.5333V9.46667C71 4.26 66.74 0 61.5333 0Z" fill="url(#paint1_linear_57_665)"/>
</g>
<defs>
<linearGradient id="paint0_linear_57_665" x1="20.8885" y1="18.6704" x2="44.45" y2="46.4394" gradientUnits="userSpaceOnUse">
<stop stop-color="#4D88CE"/>
<stop offset="1" stop-color="#F095CF"/>
</linearGradient>
<linearGradient id="paint1_linear_57_665" x1="21.0815" y1="18.5068" x2="44.643" y2="46.2756" gradientUnits="userSpaceOnUse">
<stop stop-color="#4D88CE"/>
<stop offset="1" stop-color="#F095CF"/>
</linearGradient>
<clipPath id="clip0_57_665">
<rect width="71" height="71" fill="white"/>
</clipPath>
</defs>
</svg>
