<svg width="132" height="18" viewBox="0 0 132 18" fill="none" xmlns="http://www.w3.org/2000/svg">
<g clip-path="url(#clip0_142_1045)">
<path d="M42.2585 7.13782L41.3139 8.62747L43.707 8.50333L44.3368 7.75851C45.3445 7.94471 46.4151 7.82058 47.4228 7.51023C48.4304 7.19989 49.3121 6.64127 50.0679 5.89644C50.0679 5.89644 50.0679 5.83437 50.1309 5.83437V5.7723V5.71023C50.1309 5.71023 50.1309 5.64816 50.0679 5.64816C49.3751 5.08954 48.6194 4.59299 47.7377 4.28264C46.667 3.84816 45.4704 3.72402 44.2739 3.84816L43.707 3.10333L41.2509 2.91713L42.1956 4.46885C41.8807 4.53092 41.5028 4.59299 41.1249 4.65506C40.6841 4.71713 40.2432 4.71713 39.8654 4.71713C39.5505 4.71713 39.2356 4.65506 38.9837 4.53092C38.6688 4.40678 38.4169 4.22058 38.2279 4.03437C38.039 3.78609 37.8501 3.53782 37.7241 3.28954C37.5981 2.9792 37.5352 2.73092 37.5352 2.42058C37.5352 1.79989 37.7871 1.24126 38.2279 0.806782C38.6688 0.372299 39.2986 0.124023 39.8654 0.124023H47.3598C48.9343 0.124023 50.4457 0.744713 51.5794 1.79989C52.0832 2.29644 52.524 2.85506 52.8389 3.53782C53.1538 4.22058 53.2798 4.90333 53.2798 5.58609C53.2798 7.51023 52.524 9.49644 50.2568 10.3033C51.7683 10.7999 52.713 11.6689 52.713 14.0275V17.7516H47.3598V14.2757C47.3598 13.8413 47.1709 13.4689 46.919 13.1585C46.6041 12.8482 46.2262 12.724 45.7853 12.724H42.6994V17.7516H37.5352V9.24816C37.5352 8.93782 37.5981 8.62747 37.7241 8.3792C37.8501 8.06885 38.039 7.82058 38.2279 7.63437C38.4169 7.44816 38.7317 7.26195 38.9837 7.13782C39.2986 7.01368 39.5505 6.95161 39.8654 6.95161C40.2432 6.95161 40.6841 7.01368 41.1879 7.01368C41.5658 7.01368 41.8807 7.07575 42.2585 7.13782Z" fill="white"/>
<path d="M11.4621 0.248047H15.3667V15.2687C15.3667 15.9515 15.1148 16.5722 14.611 17.0067C14.1072 17.4411 13.4774 17.7515 12.8476 17.7515H10.8953L3.84168 6.39287V17.7515H0V0.248047H4.34551L11.4621 11.4205V0.248047Z" fill="white"/>
<path d="M35.9607 8.0069C35.9607 8.37931 36.0237 8.81379 36.0237 9.12414C36.0237 14.4621 32.5599 18.0621 26.8918 18.0621C21.2237 18.0621 17.1301 14.4621 17.1301 9.06207C17.1301 3.6 21.0348 0 26.9548 0C29.9777 0 32.119 1.05517 33.6935 2.6069L31.1114 5.08965C30.0407 4.15862 28.5922 3.6 27.1437 3.66207C23.6799 3.66207 21.5386 5.83448 21.5386 8.81379C21.5386 12.1034 23.8688 14.2759 27.1437 14.2759C29.9777 14.2759 31.6152 12.8483 31.9931 11.0483H28.7182C28.5292 11.0483 28.2773 10.9862 28.0884 10.9241C27.8994 10.8621 27.7105 10.7379 27.5846 10.6138C27.4586 10.4897 27.3326 10.3034 27.2697 10.1172C27.2067 9.93103 27.1437 9.74483 27.1437 9.49655V9.43448C27.1437 9.06207 27.2697 8.68966 27.5846 8.37931C27.8365 8.13103 28.2143 7.94483 28.6552 7.94483L35.9607 8.0069Z" fill="white"/>
<path d="M54.3504 9C54.3504 3.6 58.2551 0 64.1121 0C69.9691 0 73.9367 3.6 73.9367 9C73.9367 14.4 69.9691 18 64.1121 18C58.2551 18 54.3504 14.4 54.3504 9ZM69.5282 9C69.5282 5.83448 67.3869 3.66207 64.1121 3.66207C60.8372 3.66207 58.6959 5.83448 58.6959 9C58.6959 12.1655 60.8372 14.2759 64.1121 14.2759C67.324 14.2759 69.5282 12.1655 69.5282 9Z" fill="white"/>
<path d="M96.9239 0.248047H99.7579L94.2158 17.7515H90.0593L86.6584 5.83425L83.3206 17.7515H79.164L73.6219 0.248047H76.4559C76.9597 0.248047 77.4636 0.434254 77.9044 0.744599C78.2823 1.05494 78.5972 1.48943 78.7231 1.98598L81.5572 12.5377L84.895 0.310116H88.9257L92.3265 12.4136L95.3495 1.48943C95.4124 1.17908 95.6644 0.868737 95.9163 0.620461C96.2312 0.372185 96.546 0.248047 96.9239 0.248047Z" fill="white"/>
<path d="M105.615 17.7515V3.72391H101.458V0.248047H113.928V3.72391H109.771V15.6412C109.771 16.1998 109.52 16.7584 109.142 17.1308C108.764 17.5032 108.197 17.7515 107.63 17.7515H105.615Z" fill="white"/>
<path d="M129.295 0.248047H131.625V17.7515H127.468V10.8618H120.1V17.7515H115.943V0.248047H118.022C118.588 0.248047 119.092 0.434254 119.47 0.868737C119.848 1.24115 120.1 1.79977 120.1 2.29632V7.44805H127.468V2.04805C127.468 1.55149 127.657 1.11701 127.972 0.806668C128.35 0.434254 128.791 0.248047 129.295 0.248047Z" fill="white"/>
</g>
<defs>
<clipPath id="clip0_142_1045">
<rect width="131.625" height="18" fill="white"/>
</clipPath>
</defs>
</svg>
