<svg width="75" height="75" viewBox="0 0 75 75" fill="none" xmlns="http://www.w3.org/2000/svg">
<g clip-path="url(#clip0_57_681)">
<path d="M37.5 37.5001C43.1 37.5001 47.7 32.9001 47.7 27.3001C47.7 21.7001 43.1 17.1001 37.5 17.1001C31.9 17.1001 27.3 21.7001 27.3 27.3001C27.3 32.9001 31.9 37.5001 37.5 37.5001ZM33.9 41.3001C26.1 41.3001 19.7 47.7001 19.7 55.5001C19.7 56.8001 20.8 57.9001 22.1 57.9001H53C54.3 57.9001 55.4 56.8001 55.4 55.5001C55.4 47.7001 49 41.3001 41.2 41.3001H33.9Z" fill="#F095CF"/>
<path d="M65 2C69.4 2 73 5.6 73 10V65C73 69.4 69.4 73 65 73H10C5.6 73 2 69.4 2 65V10C2 5.6 5.6 2 10 2H65ZM65 0H10C4.5 0 0 4.5 0 10V65C0 70.5 4.5 75 10 75H65C70.5 75 75 70.5 75 65V10C75 4.5 70.5 0 65 0Z" fill="#F095CF"/>
</g>
<defs>
<clipPath id="clip0_57_681">
<rect width="75" height="75" fill="white"/>
</clipPath>
</defs>
</svg>
