<svg width="115" height="36" viewBox="0 0 115 36" fill="none" xmlns="http://www.w3.org/2000/svg">
<g clip-path="url(#clip0_246_21)">
<path d="M14.8051 2.75471C15.7695 1.77723 16.6352 0.899722 17.5229 0C17.5996 0.0666461 17.7201 0.1444 17.8188 0.244369C20.0653 2.52144 22.3228 4.78741 24.5583 7.07559C26.9583 9.5415 27.1555 12.9293 25.0515 15.5508C23.9008 16.9836 22.3556 17.7279 20.5584 17.739C13.786 17.7723 7.01353 17.7501 0.230132 17.7501C0.175338 17.7501 0.120545 17.739 0 17.7168C0.120545 17.5612 0.208214 17.4391 0.317801 17.328C1.326 16.3061 2.33419 15.2953 3.33143 14.2623C3.59444 13.9846 3.85744 13.8846 4.241 13.8846C9.58881 13.8957 14.9366 13.8957 20.2954 13.8957C21.9721 13.8957 23.1227 12.3184 22.5419 10.7967C22.3995 10.4301 22.1365 10.0969 21.8625 9.80808C19.6817 7.57544 17.479 5.3539 15.2763 3.13237C15.1229 2.98797 14.9585 2.87689 14.8051 2.75471Z" fill="white"/>
<path d="M9.09569 35.2229C7.79161 35.2229 6.59712 35.2229 5.36975 35.2229C5.34783 35.1007 5.31496 34.9896 5.31496 34.8897C5.31496 31.4796 5.27112 28.0807 5.34783 24.6706C5.40263 22.0936 6.72862 20.2497 9.05186 19.2612C11.4299 18.2504 13.6983 18.628 15.5394 20.4497C20.3612 25.2482 25.1063 30.1245 29.8842 34.9674C29.939 35.023 29.9719 35.0785 30.0815 35.2118C29.8514 35.2229 29.676 35.2451 29.5116 35.2562C28.1418 35.2562 26.772 35.2451 25.4022 35.2673C24.9638 35.2784 24.657 35.1451 24.3501 34.8341C20.6023 31.0131 16.8435 27.2032 13.0846 23.4043C12.0326 22.338 10.4984 22.4046 9.57787 23.5376C9.15048 24.0597 9.09569 24.6817 9.09569 25.3148C9.09569 28.3917 9.09569 31.4574 9.09569 34.5342C9.09569 34.7453 9.09569 34.9563 9.09569 35.2229Z" fill="white"/>
<path d="M53.4124 21.282C52.3604 21.282 51.418 21.3042 50.4755 21.2598C50.333 21.2487 50.1577 20.9932 50.081 20.8044C49.1166 18.5273 48.1632 16.2502 47.2208 13.9732C47.0783 13.6177 46.914 13.4511 46.5085 13.4733C45.7414 13.5066 44.9743 13.5177 44.2072 13.4733C43.7031 13.44 43.6044 13.6399 43.6044 14.1064C43.6264 16.2391 43.6154 18.3607 43.6154 20.4934C43.6154 20.7155 43.6154 20.9377 43.6154 21.2043C42.6839 21.2043 41.7853 21.2043 40.8538 21.2043C40.8538 14.8951 40.8538 8.59704 40.8538 2.27676C40.9744 2.26566 41.062 2.24344 41.1497 2.24344C43.5935 2.24344 46.0373 2.21012 48.492 2.25455C50.6947 2.29898 52.196 3.37643 52.722 5.35359C52.9741 6.28664 53.0618 7.28633 53.0618 8.2527C53.0618 9.05245 52.8755 9.87442 52.6453 10.6409C52.2946 11.8183 51.4947 12.6402 50.3659 13.1068C50.2235 13.1734 50.07 13.24 49.8728 13.3289C51.0344 15.9614 52.196 18.5606 53.4124 21.282ZM43.6592 11.0852C45.2482 11.0852 46.7824 11.1407 48.3057 11.0629C49.4344 11.0074 49.9933 10.3521 50.0481 9.18574C50.081 8.35267 50.081 7.51959 50.0481 6.68652C50.0043 5.55353 49.4344 4.87596 48.3386 4.82042C46.7934 4.74267 45.2482 4.79821 43.6483 4.79821C43.6592 6.88645 43.6592 8.95248 43.6592 11.0852Z" fill="white"/>
<path d="M93.5211 21.2598C92.5019 21.2598 91.5923 21.282 90.6828 21.2376C90.5074 21.2265 90.2883 21.0043 90.1896 20.8266C89.1376 18.8606 88.1184 16.8834 87.0774 14.9062C87.0226 14.7951 86.9568 14.6841 86.8363 14.473C86.2445 15.2172 85.6856 15.8948 85.1487 16.6057C85.061 16.7168 85.1048 16.9278 85.1048 17.0944C85.1048 18.4607 85.1048 19.8269 85.1048 21.2265C84.1843 21.2265 83.3186 21.2265 82.409 21.2265C82.409 14.5508 82.409 7.87506 82.409 1.16602C83.2747 1.16602 84.1405 1.16602 85.0281 1.16602C85.0281 5.35361 85.0281 9.55232 85.0281 13.8732C85.2144 13.6955 85.3569 13.5955 85.4665 13.4511C86.913 11.4739 88.3595 9.49678 89.7842 7.51961C89.9814 7.24192 90.2006 7.10863 90.5513 7.11973C91.406 7.14195 92.2608 7.13084 93.2252 7.13084C92.8855 7.57515 92.6115 7.93059 92.3266 8.28604C91.2636 9.63007 90.1896 10.9852 89.0938 12.3292C88.8527 12.618 88.8417 12.8291 89.028 13.1512C90.4307 15.6393 91.8115 18.1386 93.2033 20.6378C93.3019 20.8044 93.3896 20.9821 93.5211 21.2598Z" fill="white"/>
<path d="M106.134 14.8842C103.208 14.8842 100.425 14.8842 97.6415 14.8842C97.1593 16.3615 97.8387 18.2609 99.0552 18.9385C100.721 19.8604 102.54 19.2606 104.228 17.1946C104.743 17.6833 105.247 18.172 105.773 18.683C104.797 20.3158 103.45 21.3488 101.598 21.5266C100.699 21.6043 99.7565 21.5599 98.8798 21.3711C96.721 20.9045 95.5484 19.3272 95.0114 17.2834C94.4196 15.0619 94.4525 12.807 95.121 10.6077C96.0525 7.56421 98.5182 6.48677 101.335 6.86443C103.965 7.21987 105.499 8.91935 105.893 11.774C106.047 12.7737 106.058 13.7845 106.134 14.8842ZM103.198 12.9959C103.154 11.5852 103.241 10.1523 101.882 9.35255C100.852 8.74162 99.7127 8.80827 98.7264 9.48584C97.51 10.3189 97.5209 11.6518 97.5209 12.9959C99.4277 12.9959 101.269 12.9959 103.198 12.9959Z" fill="white"/>
<path d="M55.3959 13.8397C55.5384 12.9733 55.637 11.7959 55.9439 10.6851C56.5685 8.43027 58.0698 7.10846 60.3821 6.84187C63.2862 6.50864 65.8834 7.64162 66.6614 10.9961C66.9463 12.218 67.0011 13.5176 67.0121 14.7839C67.0231 15.6614 66.8806 16.5611 66.6614 17.4053C65.9272 20.2377 63.9437 21.6817 61.0616 21.5818C57.9931 21.4707 56.0973 19.7046 55.6261 16.4944C55.5384 15.7169 55.4946 14.9283 55.3959 13.8397ZM58.3328 14.1063C58.3767 15.0616 58.3657 15.9613 58.4753 16.8277C58.6835 18.4605 59.6808 19.2825 61.3136 19.2714C62.9136 19.2492 63.9656 18.4161 64.0752 16.8055C64.1848 15.0393 64.1738 13.2621 64.0642 11.496C63.9656 9.97424 62.8807 9.13005 61.3465 9.10784C59.7465 9.08562 58.7054 9.89648 58.4863 11.4182C58.3657 12.3291 58.3767 13.251 58.3328 14.1063Z" fill="white"/>
<path d="M79.757 10.2081C79.0008 10.5635 78.2885 10.9078 77.5433 11.2633C77.4995 11.1633 77.4666 11.0967 77.4338 11.03C76.7982 9.35277 75.4502 8.68631 73.7517 9.2528C72.7763 9.57493 72.1846 10.3302 72.1407 11.2966C72.0421 13.2071 72.0092 15.1399 72.1407 17.0504C72.2174 18.3056 73.0284 19.0609 74.0914 19.2164C75.3516 19.4052 76.5132 19.2497 77.2694 18.0279C77.4557 17.7169 77.6091 17.3836 77.8064 17.006C78.4639 17.3725 79.1214 17.7391 79.8337 18.1278C79.3296 19.5385 78.4858 20.6271 77.1269 21.1713C75.4393 21.8378 73.7188 21.8045 72.075 21.0158C70.475 20.2494 69.7189 18.8054 69.3901 17.117C69.0066 15.1732 68.9956 13.2182 69.3901 11.2744C70.1134 7.67551 72.7215 6.4981 75.768 6.86465C77.7735 7.09791 79.0228 8.29754 79.757 10.2081Z" fill="white"/>
<path d="M112.469 19.0051C113.29 19.0051 114.036 19.0051 114.858 19.0051C114.858 19.6938 114.868 20.3602 114.847 21.0156C114.847 21.1155 114.638 21.2711 114.529 21.2711C113.542 21.2711 112.556 21.2933 111.57 21.1933C110.529 21.0933 109.904 20.3936 109.762 19.3494C109.707 18.9829 109.685 18.6163 109.685 18.2387C109.674 15.5395 109.685 12.8292 109.685 10.1301C109.685 9.9079 109.685 9.69685 109.685 9.41916C109.159 9.41916 108.688 9.39695 108.217 9.43027C107.844 9.45248 107.734 9.30808 107.756 8.95264C107.778 8.36393 107.767 7.77522 107.767 7.13098C108.162 7.13098 108.48 7.13098 108.808 7.13098C109.619 7.11987 109.926 6.84218 109.97 5.99799C110.014 5.22046 109.981 4.44292 109.992 3.66538C109.992 3.5543 110.003 3.44323 110.014 3.29883C110.792 3.29883 111.57 3.29883 112.425 3.29883C112.425 4.554 112.425 5.82027 112.425 7.11987C113.323 7.11987 114.134 7.11987 115 7.11987C115 7.8863 115 8.61941 115 9.41916C114.178 9.41916 113.345 9.41916 112.469 9.41916C112.469 12.6293 112.469 15.7839 112.469 19.0051Z" fill="white"/>
<path d="M90.7595 34.0676C90.7595 30.7131 90.7595 27.3697 90.7595 23.993C91.154 23.993 91.5485 23.993 91.9649 23.993C91.9649 27.9362 91.9649 31.835 91.9649 35.7893C91.4718 35.7893 91.0006 35.8116 90.5293 35.7782C90.4088 35.7671 90.2663 35.6005 90.2006 35.4783C88.6554 32.3348 87.1322 29.1914 85.598 26.0368C85.5322 25.9146 85.4665 25.7924 85.313 25.6813C85.313 29.0248 85.313 32.3682 85.313 35.756C84.9295 35.756 84.535 35.756 84.1076 35.756C84.0966 35.545 84.0857 35.3672 84.0857 35.1895C84.0857 31.6573 84.0966 28.1139 84.0747 24.5817C84.0747 24.0596 84.2391 23.9597 84.7213 23.9263C85.4555 23.8819 85.839 24.1041 86.1678 24.8149C87.5705 27.8362 89.0609 30.8242 90.5074 33.8233C90.5513 33.9232 90.617 34.001 90.6718 34.101C90.6937 34.0899 90.7266 34.0788 90.7595 34.0676Z" fill="white"/>
<path d="M45.9934 30.6236C46.7825 32.3675 47.5386 34.0225 48.3386 35.7887C47.8455 35.7887 47.4181 35.822 47.0016 35.7665C46.8811 35.7553 46.7496 35.5221 46.6838 35.3666C46.0811 33.9781 45.4784 32.5897 44.8976 31.2012C44.7442 30.8346 44.5579 30.6458 44.1305 30.6791C43.5168 30.7236 42.8922 30.6902 42.2018 30.6902C42.2018 32.3897 42.2018 34.0448 42.2018 35.7553C41.7305 35.7553 41.3251 35.7553 40.8867 35.7553C40.8867 31.8343 40.8867 27.9466 40.8867 23.9923C41.073 23.9812 41.2484 23.959 41.4237 23.959C42.6511 23.959 43.8675 23.959 45.0948 23.959C46.8373 23.9701 47.7687 24.7254 47.9879 26.4693C48.0756 27.1913 48.0318 27.9578 47.9003 28.6686C47.7359 29.6794 47.1003 30.3681 45.9934 30.6236ZM42.2237 29.5461C43.3524 29.5461 44.4373 29.5906 45.5332 29.535C46.2017 29.5017 46.6071 28.9797 46.651 28.2354C46.6838 27.6467 46.6838 27.0469 46.651 26.4582C46.6071 25.7473 46.2236 25.2253 45.577 25.1919C44.4812 25.1253 43.3634 25.1697 42.2346 25.1697C42.2237 26.6359 42.2237 28.0688 42.2237 29.5461Z" fill="white"/>
<path d="M96.4361 23.9482C96.8525 23.9482 97.2361 23.9482 97.6963 23.9482C97.6963 24.1593 97.6963 24.3592 97.6963 24.5481C97.6963 26.8029 97.6963 29.0689 97.6963 31.3237C97.6963 31.657 97.6854 31.9902 97.7182 32.3234C97.8826 34.3672 98.8908 35.067 100.984 34.7338C101.893 34.5894 102.343 33.9118 102.518 33.0565C102.617 32.6122 102.65 32.1346 102.65 31.6792C102.661 29.3133 102.661 26.9362 102.661 24.5703C102.661 24.3703 102.661 24.1704 102.661 23.9482C103.11 23.9482 103.504 23.9482 103.932 23.9482C103.954 24.1037 103.976 24.2481 103.976 24.3925C103.976 26.8696 103.976 29.3577 103.954 31.8347C103.954 32.3679 103.866 32.901 103.767 33.4231C103.461 34.9004 102.562 35.7668 101.083 35.9334C100.491 36.0001 99.8661 36.0223 99.2853 35.9334C97.51 35.6668 96.5785 34.6894 96.4799 32.5456C96.3375 29.7131 96.4361 26.8585 96.4361 23.9482Z" fill="white"/>
<path d="M79.9652 23.9707C79.9652 24.3595 79.9652 24.7038 79.9652 25.1037C78.2776 25.1037 76.6119 25.1037 74.8913 25.1037C74.8913 26.5033 74.8913 27.8362 74.8913 29.2246C76.4913 29.2246 78.0584 29.2246 79.5926 29.2246C79.6364 29.3024 79.6693 29.3357 79.6693 29.369C79.8008 30.3687 79.7789 30.3909 78.7926 30.3909C77.4995 30.3909 76.2064 30.3909 74.8475 30.3909C74.8475 31.4684 74.8475 32.4792 74.8475 33.49C74.8475 34.6341 74.8475 34.6341 75.9653 34.6341C77.2803 34.6341 78.5844 34.6341 79.9433 34.6341C79.9433 35.0228 79.9433 35.3561 79.9433 35.7448C77.8392 35.7448 75.7352 35.7448 73.5763 35.7448C73.5653 35.556 73.5544 35.3561 73.5434 35.1561C73.5434 31.6239 73.5544 28.0917 73.5325 24.5594C73.5325 24.0929 73.6311 23.9152 74.1352 23.9263C75.8886 23.9596 77.642 23.9374 79.3953 23.9374C79.5707 23.9485 79.746 23.9596 79.9652 23.9707Z" fill="white"/>
<path d="M58.7055 23.9929C58.7055 24.3706 58.7055 24.7149 58.7055 25.1148C57.0069 25.1148 55.3302 25.1148 53.6316 25.1148C53.6316 26.5033 53.6316 27.8251 53.6316 29.2135C55.2206 29.2135 56.7767 29.2135 58.3 29.2135C58.3548 29.3135 58.3876 29.3357 58.3876 29.369C58.4753 30.3909 58.4753 30.3909 57.4562 30.3909C56.3274 30.3909 55.1877 30.4021 54.059 30.3798C53.7083 30.3798 53.5768 30.4909 53.5878 30.8575C53.6097 31.946 53.6097 33.0457 53.5878 34.1342C53.5768 34.5341 53.7193 34.6341 54.0919 34.6341C55.6042 34.623 57.1164 34.623 58.6835 34.623C58.6835 35.0117 58.6835 35.3672 58.6835 35.7448C56.5576 35.7448 54.4535 35.7448 52.3056 35.7448C52.3056 31.8127 52.3056 27.9139 52.3056 23.9707C54.4206 23.9929 56.5247 23.9929 58.7055 23.9929Z" fill="white"/>
<path d="M109.773 29.2133C111.362 29.2133 112.929 29.2133 114.529 29.2133C114.529 29.6132 114.529 29.9575 114.529 30.3796C112.962 30.3796 111.384 30.3796 109.784 30.3796C109.784 31.8236 109.784 33.1787 109.784 34.6227C111.46 34.6227 113.126 34.6227 114.836 34.6227C114.836 35.0337 114.836 35.378 114.836 35.7557C112.721 35.7557 110.617 35.7557 108.469 35.7557C108.469 31.8347 108.469 27.9248 108.469 23.9482C108.951 23.9482 109.411 23.9482 109.86 23.9482C111.307 23.9482 112.742 23.9482 114.189 23.9482C114.901 23.9482 114.901 23.9482 114.879 24.6813C114.879 24.8035 114.858 24.9368 114.836 25.1257C113.148 25.1257 111.482 25.1257 109.784 25.1257C109.773 26.5141 109.773 27.8359 109.773 29.2133Z" fill="white"/>
<path d="M64.9957 35.8C63.856 31.8568 62.7163 27.9469 61.5657 23.9592C62.004 23.9592 62.3766 23.9259 62.7273 23.9815C62.8478 24.0037 63.0122 24.1925 63.0561 24.3369C63.9327 27.6026 65.1053 30.7794 65.6532 34.1228C65.6861 34.2894 65.7409 34.456 65.7957 34.6226C65.8505 34.6226 65.8943 34.6226 65.9491 34.6337C66.0806 33.9784 66.1683 33.323 66.3436 32.6788C67.056 30.0574 67.7792 27.4471 68.5135 24.8368C68.7984 23.8371 68.886 23.7926 70.0915 24.0259C69.697 25.4032 69.2915 26.7806 68.897 28.158C68.2066 30.535 67.4943 32.9009 66.8258 35.278C66.7053 35.7112 66.519 35.8445 66.1135 35.8C65.7519 35.7667 65.3793 35.8 64.9957 35.8Z" fill="white"/>
</g>
<defs>
<clipPath id="clip0_246_21">
<rect width="115" height="36" fill="white"/>
</clipPath>
</defs>
</svg>
